<?xml version="1.0" standalone="no"?>
<!DOCTYPE svg PUBLIC "-//W3C//DTD SVG 20010904//EN"
 "http://www.w3.org/TR/2001/REC-SVG-20010904/DTD/svg10.dtd">
<svg version="1.0" xmlns="http://www.w3.org/2000/svg"
 width="431.000000pt" height="103.000000pt" viewBox="0 0 431.000000 103.000000"
 preserveAspectRatio="xMidYMid meet">
<metadata>
Created by potrace 1.15, written by Peter Selinger 2001-2017
</metadata>
<g transform="translate(0.000000,103.000000) scale(0.100000,-0.100000)"
fill="#000000" stroke="none">
<path d="M1614 712 c-52 -25 -83 -74 -96 -155 -29 -169 90 -289 231 -231 34
14 47 26 49 43 3 20 1 22 -15 16 -85 -36 -97 -38 -135 -22 -56 23 -78 67 -78
152 0 89 21 133 74 159 42 20 50 19 139 -19 13 -5 17 -2 17 13 0 50 -115 77
-186 44z"/>
<path d="M337 713 c-4 -3 -7 -93 -7 -200 0 -186 1 -193 20 -193 19 0 20 7 21
178 0 122 3 172 10 162 6 -8 39 -87 73 -175 86 -217 85 -218 180 12 l71 173 5
-173 c5 -170 5 -172 28 -175 l22 -3 -2 198 -3 198 -28 3 c-16 2 -34 -1 -41 -7
-8 -6 -42 -79 -76 -162 -35 -82 -66 -146 -70 -142 -4 4 -31 66 -60 138 -65
162 -73 175 -109 175 -15 0 -31 -3 -34 -7z"/>
<path d="M880 520 l0 -201 107 3 c93 3 108 5 111 21 3 15 -6 17 -82 17 l-86 0
0 75 0 75 70 0 c63 0 70 2 70 20 0 18 -7 20 -70 20 l-70 0 0 65 0 65 80 0 c73
0 80 2 80 20 0 19 -7 20 -105 20 l-105 0 0 -200z"/>
<path d="M1190 519 l0 -200 23 3 c21 3 22 8 25 91 l3 87 28 0 c44 0 75 -32
105 -109 24 -61 31 -71 52 -71 13 0 24 4 24 9 0 23 -56 139 -79 164 -18 20
-21 27 -10 27 23 0 58 42 65 77 8 42 -19 91 -61 109 -19 8 -66 14 -105 14
l-70 0 0 -201z m165 141 c9 -7 15 -29 15 -51 0 -47 -27 -69 -87 -69 l-43 0 0
71 0 72 50 -5 c27 -3 56 -11 65 -18z"/>
<path d="M1880 520 l0 -201 23 3 c21 3 22 8 25 96 l3 92 89 0 89 0 3 -92 c3
-88 4 -93 26 -96 l22 -3 0 201 0 201 -22 -3 c-21 -3 -23 -9 -26 -85 l-3 -83
-89 0 -89 0 -3 83 c-3 76 -5 82 -25 85 l-23 3 0 -201z"/>
</g>
</svg>
